:SAMPLES-PER-SECOND 30
:FULLY-SPECIFIED
:DEGREES
277
root  12.4766 39.86 -11.69 -6.96362 -7.88489 3.45483
RightUpLeg  -17.2275 -2.91241 -15.591
RightLeg  33.9838 2.90278 1.8545
RightFoot  -0.548763 -1.09832 11.5478
RightToes  0.00048216 0.542163 -0.142577
Spine  14.0352 0.270825 -7.67461
Spine1  8.28689 -0.954129 0.574777
HEad  19.6218 7.24895 -4.44518
LeftShoulder1  6.36415 -9.91611 -41.0918
LeftArm  -22.1571 17.3042 -24.4188
LeftForeArm  39.4566 -62.0905 -17.5084
LeftHand  -0.25398 0.0180481 5.50724
RightShoulder  5.21619 8.91905 36.0075
RightArm  -3.68331 -18.3046 36.6746
RightForeArm  -8.8916 19.7802 5.64161
RightHand  -2.00717 4.90952 -22.7058
LeftUpLeg  -2.98687 7.49378 -2.56487
LeftLeg  16.2221 11.7184 -0.0439595
LeftFoot  -5.74713 -0.139953 3.58344
LeftToes  1.06245e-005 4.65855e-005 -8.18504e-006
278
root  11.7325 39.7876 -11.1328 -6.42059 -4.82671 4.0462
RightUpLeg  -16.3904 1.47722 -18.6107
RightLeg  26.7878 4.49727 2.24011
RightFoot  -1.4551 -0.942399 10.7541
RightToes  0.00048216 0.542163 -0.142577
Spine  13.738 0.111727 -8.06242
Spine1  8.04366 -1.23312 0.990575
HEad  18.523 5.65912 -4.81063
LeftShoulder1  6.20938 -9.76261 -40.5104
LeftArm  -22.0805 15.2555 -25.2559
LeftForeArm  44.0311 -66.7483 -21.7761
LeftHand  -0.25398 0.0180481 5.50724
RightShoulder  5.27515 9.02501 36.1201
RightArm  -6.48895 -19.4797 36.8556
RightForeArm  -6.82476 16.6172 6.22518
RightHand  -1.85529 4.39316 -22.1025
LeftUpLeg  -3.18311 7.39359 -2.67027
LeftLeg  17.1289 8.73937 0.0937221
LeftFoot  -6.63941 -0.078784 2.89188
LeftToes  1.06245e-005 4.65855e-005 -8.18504e-006
279
root  10.9448 39.6983 -10.5773 -5.73206 -1.18307 4.69971
RightUpLeg  -15.119 6.33065 -21.7323
RightLeg  19.9036 7.63548 2.8858
RightFoot  -1.61972 -0.894424 10.3596
RightToes  0.00048216 0.542163 -0.142577
Spine  13.6748 -0.12948 -8.08862
Spine1  7.54021 -1.47165 1.07156
HEad  17.3445 3.77445 -5.11946
LeftShoulder1  6.07489 -9.59025 -40.1221
LeftArm  -21.7499 13.5911 -26.2474
LeftForeArm  48.4541 -70.2139 -26.3442
LeftHand  -0.25398 0.0180481 5.50724
RightShoulder  5.36249 9.18901 36.261
RightArm  -8.05179 -21.0555 37.2093
RightForeArm  -4.60334 14.636 6.52942
RightHand  -1.69643 3.8438 -21.4159
LeftUpLeg  -3.61525 6.92921 -2.77034
LeftLeg  18.0465 5.26495 0.121351
LeftFoot  -7.43166 -0.0164825 1.78235
LeftToes  1.06245e-005 4.65855e-005 -8.18504e-006
280
root  10.0705 39.5582 -9.99635 -5.0531 3.21535 5.5946
RightUpLeg  -13.1225 8.18943 -24.0118
RightLeg  14.2606 13.962 3.13551
RightFoot  -0.903167 -1.06625 11.5497
RightToes  0.00048216 0.542163 -0.142577
Spine  13.6106 -0.369747 -8.4636
Spine1  7.31699 -1.79371 1.23054
HEad  15.9559 1.70381 -5.32635
LeftShoulder1  6.06636 -9.59581 -40.0417
LeftArm  -21.204 12.3176 -27.2389
LeftForeArm  52.313 -72.4955 -30.4844
LeftHand  -0.25398 0.0180481 5.50724
RightShoulder  5.41507 9.31792 36.2466
RightArm  -8.41178 -22.722 37.9401
RightForeArm  -2.0491 13.9046 6.55236
RightHand  -1.56579 3.51554 -20.5254
LeftUpLeg  -4.1508 5.69745 -2.89419
LeftLeg  19.1225 1.88681 -0.0442522
LeftFoot  -8.11354 0.0399838 0.316385
LeftToes  1.06245e-005 4.65855e-005 -8.18504e-006
281
root  9.0763 39.4094 -9.38186 -4.31952 8.13692 6.63745
RightUpLeg  -10.6347 3.27644 -24.0543
RightLeg  11.3522 23.6667 2.18185
RightFoot  -0.83857 -1.29364 13.9844
RightToes  0.00048216 0.542163 -0.142577
Spine  13.4201 -0.452148 -9.64643
Spine1  7.49531 -2.25148 2.18411
HEad  14.5155 -0.069045 -5.39801
LeftShoulder1  6.16635 -9.74006 -40.2795
LeftArm  -20.4676 11.642 -28.0032
LeftForeArm  55.4098 -73.8688 -33.6109
LeftHand  -0.25398 0.0180481 5.50724
RightShoulder  5.43124 9.36416 36.221
RightArm  -7.66237 -24.0525 38.7537
RightForeArm  -0.242885 14.061 6.51823
RightHand  -1.57384 3.64544 -20.338
LeftUpLeg  -4.56254 3.71052 -2.83474
LeftLeg  19.7925 -0.899521 -0.481426
LeftFoot  -8.46219 0.0770847 -1.03912
LeftToes  1.06245e-005 4.65855e-005 -8.18504e-006
282
root  7.99365 39.3463 -8.78608 -3.40723 13.1276 7.12799
RightUpLeg  -8.83623 1.0762 -23.6018
RightLeg  11.5008 24.3128 1.95767
RightFoot  -2.44762 -1.22354 15.4085
RightToes  0.00048216 0.542163 -0.142577
Spine  13.4642 -0.529262 -10.3554
Spine1  7.49966 -2.73428 3.52289
HEad  13.0538 -0.706095 -5.3367
LeftShoulder1  6.33857 -9.9278 -40.8747
LeftArm  -19.7042 11.6689 -28.157
LeftForeArm  57.5823 -74.4774 -35.0523
LeftHand  -0.25398 0.0180481 5.50724
RightShoulder  5.47431 9.35409 36.5795
RightArm  -6.04877 -24.5609 39.1412
RightForeArm  0.200704 14.5506 6.55606
RightHand  -1.65684 3.85518 -20.9153
LeftUpLeg  -4.93804 1.04867 -1.89318
LeftLeg  19.451 -3.46538 -1.08586
LeftFoot  -8.28834 0.122208 -2.6935
LeftToes  1.06245e-005 4.65855e-005 -8.18504e-006
283
root  6.90947 39.4115 -8.26381 -2.46069 17.6998 6.35559
RightUpLeg  -8.11449 2.26647 -21.7686
RightLeg  13.2797 17.4443 2.00635
RightFoot  -4.59641 -0.892505 14.4971
RightToes  0.00048216 0.542163 -0.142577
Spine  13.7798 -0.882616 -8.5614
Spine1  7.10802 -2.9168 3.75931
HEad  11.3011 0.432141 -5.32773
LeftShoulder1  6.63168 -10.2596 -41.8034
LeftArm  -19.3551 12.2309 -27.8295
LeftForeArm  57.8426 -74.0772 -33.6999
LeftHand  -0.25398 0.0180481 5.50724
RightShoulder  5.52609 9.33346 37.0375
RightArm  -4.60331 -23.9512 39.2413
RightForeArm  0.725122 14.8503 6.59593
RightHand  -1.65729 3.76198 -21.1196
LeftUpLeg  -5.61407 -2.6225 0.457674
LeftLeg  18.1396 -5.21578 -1.34601
LeftFoot  -7.53097 0.203872 -4.73211
LeftToes  1.06245e-005 4.65855e-005 -8.18504e-006
284
root  5.90336 39.564 -7.82151 -1.68555 21.6373 4.63226
RightUpLeg  -8.28882 2.36768 -18.5954
RightLeg  14.8884 11.8315 1.76941
RightFoot  -5.37304 -0.657088 11.9177
RightToes  0.00048216 0.542163 -0.142577
Spine  13.8564 -1.37461 -4.52801
Spine1  6.76303 -2.65506 2.72663
HEad  9.19479 3.2357 -5.59971
LeftShoulder1  7.02625 -10.7775 -42.7524
LeftArm  -19.6751 13.2289 -27.9799
LeftForeArm  55.9022 -72.5277 -29.8685
LeftHand  -0.25398 0.0180481 5.50724
RightShoulder  5.50719 9.35839 36.8144
RightArm  -3.55119 -22.4863 39.2892
RightForeArm  1.58078 15.0472 6.58864
RightHand  -1.58405 3.56995 -20.6344
LeftUpLeg  -6.7813 -6.37845 3.57638
LeftLeg  16.5674 -4.65909 -0.799705
LeftFoot  -6.18903 0.295157 -5.76912
LeftToes  1.06245e-005 4.65855e-005 -8.18504e-006
285
root  4.98868 39.7311 -7.41953 -0.990784 25.2409 3.19122
RightUpLeg  -8.61519 -0.598036 -15.7209
RightLeg  15.7172 10.6868 1.88135
RightFoot  -4.93098 -0.550839 9.21954
RightToes  0.00048216 0.542163 -0.142577
Spine  13.541 -1.54662 -1.04322
Spine1  6.63988 -2.23269 2.07943
HEad  7.19465 6.92879 -6.01412
LeftShoulder1  7.33487 -11.2284 -43.3006
LeftArm  -20.1745 14.6327 -29.3114
LeftForeArm  52.8803 -70.1818 -25.5625
LeftHand  -0.25398 0.0180481 5.50724
RightShoulder  5.42249 9.44327 35.9037
RightArm  -1.13717 -20.8937 38.6133
RightForeArm  -0.18942 16.0548 6.51936
RightHand  -1.61047 3.71337 -20.6488
LeftUpLeg  -8.39763 -7.77855 5.84725
LeftLeg  15.9624 -1.8119 0.152666
LeftFoot  -4.70859 0.305411 -4.81258
LeftToes  1.06245e-005 4.65855e-005 -8.18504e-006
286
root  4.12872 39.91 -7.0069 -0.203979 28.9841 2.89996
RightUpLeg  -8.26275 -5.12184 -14.1709
RightLeg  15.7266 11.1012 2.18463
RightFoot  -4.75044 -0.458999 7.38416
RightToes  0.00048216 0.542163 -0.142577
Spine  13.1961 -1.28972 -0.0565479
Spine1  6.44139 -1.95406 2.58949
HEad  5.79877 10.7411 -6.19065
LeftShoulder1  7.44074 -11.3934 -43.4467
LeftArm  -19.9607 16.1042 -31.1789
LeftForeArm  49.4163 -67.3427 -21.8037
LeftHand  -0.25398 0.0180481 5.50724
RightShoulder  5.32063 9.46335 35.0696
RightArm  3.90209 -19.7519 36.4406
RightForeArm  -6.40231 18.5993 6.19872
RightHand  -1.83333 4.2929 -22.048
LeftUpLeg  -9.89479 -5.33832 6.0345
LeftLeg  16.6724 1.10136 0.816923
LeftFoot  -3.91836 0.225101 -3.08089
LeftToes  1.06245e-005 4.65855e-005 -8.18504e-006
287
root  3.36385 40.1066 -6.58367 0.540894 32.9372 3.12476
RightUpLeg  -7.22208 -8.7277 -13.3392
RightLeg  15.0575 10.1364 2.16739
RightFoot  -5.00168 -0.372261 6.10116
RightToes  0.00048216 0.542163 -0.142577
Spine  12.7644 -0.976236 -0.0146588
Spine1  6.22436 -1.77532 3.35557
HEad  5.01901 14.4167 -6.1518
LeftShoulder1  7.44724 -11.3735 -43.5479
LeftArm  -18.6903 17.2013 -32.374
LeftForeArm  45.7951 -63.8486 -18.3908
LeftHand  -0.25398 0.0180481 5.50724
RightShoulder  5.14823 9.22671 34.486
RightArm  9.14752 -19.183 33.3268
RightForeArm  -13.1856 22.0805 5.77318
RightHand  -2.19573 5.18373 -24.1298
LeftUpLeg  -10.9649 -0.231855 4.59968
LeftLeg  18.7152 2.19731 1.1404
LeftFoot  -4.55721 0.167806 -2.37978
LeftToes  1.06245e-005 4.65855e-005 -8.18504e-006
288
root  2.71388 40.3024 -6.16759 1.19574 36.9708 3.24133
RightUpLeg  -6.09996 -10.5685 -12.5369
RightLeg  14.0752 7.63922 1.97416
RightFoot  -4.85313 -0.300669 4.73117
RightToes  0.00048216 0.542163 -0.142577
Spine  11.8437 -0.826224 0.48643
Spine1  6.26761 -1.56708 3.44565
HEad  4.57937 18.0806 -6.31827
LeftShoulder1  7.46386 -11.3538 -43.7115
LeftArm  -16.8564 17.9168 -32.5828
LeftForeArm  42.8398 -59.7228 -15.3135
LeftHand  -0.25398 0.0180481 5.50724
RightShoulder  4.83442 8.73289 33.5594
RightArm  11.1636 -19.2304 30.6642
RightForeArm  -15.3673 25.1828 6.09912
RightHand  -2.54315 6.10827 -25.66
LeftUpLeg  -11.4911 4.42574 2.60152
LeftLeg  21.2868 2.87559 1.56796
LeftFoot  -5.91409 0.164141 -2.71963
LeftToes  1.06245e-005 4.65855e-005 -8.18504e-006
